# xmcd
#
# Track frame offsets:
#	150
#	18717
#	38952
#	65367
#	79847
#	97538
#	113888
#	134492
#	163593
#	172281
#	184668
#	200259
#	220239
#	243619
#	258378
#	287900
#	311594
#
# Disc length: 4767 seconds
#
# Revision: 1
# Processed by: cddbd v1.5.2PL0 Copyright (c) Steve Scherf et al.
# Submitted via: EasyCDDAExtractor 11.9.9.666
#
DISCID=f8129d11
DTITLE=Various Artist - Terrorizer: Fear Candy 52A
DYEAR=2008
DGENRE=
TTITLE0=Meshuggah - Combustion
TTITLE1=Cavalera Conspiracy - Inflikted
TTITLE2=Hate - Threnody
TTITLE3=Trigger the Bloodshed - Laceration
TTITLE4=Stigma - I Am Dracula
TTITLE5=Thorium - Epidemic Skeleton
TTITLE6=Toxocara - U48
TTITLE7=Draconian - Seasons Apart
TTITLE8=Rotten Sound - The Effects
TTITLE9=Anal Vomit - Prevail the Cult
TTITLE10=Asesino - Y tu mamá también
TTITLE11=Boltdown - Blind Faith
TTITLE12=Jarboe and Justin Broadrick - Romp
TTITLE13=Romeo Must Die - Who Died and Made You God?
TTITLE14=Augustine - The Impossible
TTITLE15=Sworn Amongst - And So It Begins
TTITLE16=Gallileous - ...et mors
EXTD=
EXTT0=
EXTT1=
EXTT2=
EXTT3=
EXTT4=
EXTT5=
EXTT6=
EXTT7=
EXTT8=
EXTT9=
EXTT10=
EXTT11=
EXTT12=
EXTT13=
EXTT14=
EXTT15=
EXTT16=
PLAYORDER=
